<svg xmlns="http://www.w3.org/2000/svg" version="1.1" xmlns:xlink="http://www.w3.org/1999/xlink" xmlns:svgjs="http://svgjs.dev/svgjs" viewBox="0 0 800 400"><path d="M439.0134582519531,0C425.9461946105957,5.479820728302002,403.85202682495117,10.672645797729492,383.4080810546875,23.31838607788086C362.96413528442383,35.964126358032225,360.86996719360354,38.215248889923096,352.0179443359375,53.81166076660156C343.16592147827146,69.40807264328004,345.7398986816406,72.82510974884033,345.7398986816406,89.68609619140625C345.7398986816406,106.54708263397217,343.16592147827146,110.59641151428222,352.0179443359375,125.56053924560547C360.86996719360354,140.5246669769287,367.1793832397461,142.61435749053956,383.4080810546875,153.3632354736328C399.6367788696289,164.11211345672606,399.36771347045897,159.91928253173828,421.07623291015625,171.30044555664062C442.78475234985353,182.68160858154297,456.8161473083496,188.5156893157959,475.7847595214844,201.79371643066406C494.7533717346191,215.07174354553223,491.88790939331057,206.9372194671631,501.7937316894531,227.8026885986328C511.6995539855957,248.66815773010254,517.5156750488281,269.29595069885255,517.9371948242188,290.58294677734375C518.3587145996094,311.86994285583495,516.0224024963379,303.2107594299316,503.5874328613281,318.3856506347656C491.15246322631833,333.56054183959964,482.72646179199216,342.51121520996094,465.0224304199219,355.1569519042969C447.3183990478516,367.8026885986328,443.21525329589844,366.50671463012696,428.2511291503906,372.1972961425781C413.2870050048828,377.8878776550293,421.57849227905274,373.26008392333983,401.3453063964844,379.3721923828125C381.112120513916,385.48430084228517,356.0627833557129,393.7802604675293,342.1524658203125,398.2062683105469" fill="none" stroke-width="25" stroke="hsl(0, 0%, 80%)" stroke-linecap="butt" transform="matrix(0.8084127123905274,-4.487592033478188e-17,4.487592033478188e-17,0.8084127123905274,52.34515495670354,39.04249527208037)" stroke-dasharray="65 34"></path><defs><linearGradient id="SvgjsLinearGradient1001"><stop stop-color="hsl(37, 99%, 67%)" offset="0"></stop><stop stop-color="hsl(316, 73%, 52%)" offset="1"></stop></linearGradient></defs></svg>